<svg xmlns="http://www.w3.org/2000/svg" viewBox="0 0 512 512">
  <rect width="512" height="512" rx="112" fill="#156f7a"/>
  <path fill="#ffffff" d="M136 134c0-18 14-32 32-32h176c18 0 32 14 32 32v244c0 17-14 32-32 32H168c-18 0-32-15-32-32V134Z"/>
  <path fill="#d9f1f2" d="M176 154h160v48H176z"/>
  <path fill="#3157a4" d="M188 246h136v22H188zm0 54h96v22h-96z"/>
  <path fill="#156f7a" d="M344 320c21 0 38 17 38 38s-17 38-38 38-38-17-38-38 17-38 38-38Zm-8 55 31-38 13 11-42 50-28-25 12-13 14 15Z"/>
</svg>
